# xmcd
# 
# Track frame offsets:
#     150
#     17132
#     36797
#     71040
#     89376
#     111375
#     126921
#     154639
#     169762
# 
# Disc length: 2506
# 
# Revision: 0
# Processed by: cddbd v1.5.2PL0 Copyright (c) Steve Scherf et al.
# Submitted via: fre:ac v1.0.31
# 
DISCID=7509c809
DTITLE=Harvey Mandel - Righteous - Snake Box CD2
DYEAR=2015
DGENRE=Blues
TTITLE0=Righteous
TTITLE1=Jive Samba
TTITLE2=Love Of Live
TTITLE3=Poontang
TTITLE4=Just A Hair More
TTITLE5=Summer Sequence
TTITLE6=Short's Stuff
TTITLE7=Boo-Bee-Doo
TTITLE8=Campus Blues
EXTD=
EXTT0=
EXTT1=
EXTT2=
EXTT3=
EXTT4=
EXTT5=
EXTT6=
EXTT7=
EXTT8=
PLAYORDER=
